<svg width="80" height="80" viewBox="0 0 80 80" fill="none" xmlns="http://www.w3.org/2000/svg">
<path d="M66.6667 26.6666H13.3333C11.4924 26.6666 10 28.159 10 30V36.6666C10 38.5076 11.4924 40 13.3333 40H66.6667C68.5076 40 70 38.5076 70 36.6666V30C70 28.159 68.5076 26.6666 66.6667 26.6666Z" stroke="#FDE047" stroke-width="6.66667" stroke-linecap="round" stroke-linejoin="round"/>
<path d="M40 26.6666V70" stroke="#FDE047" stroke-width="6.66667" stroke-linecap="round" stroke-linejoin="round"/>
<path d="M63.3334 40V63.3333C63.3334 65.1014 62.631 66.7971 61.3807 68.0474C60.1305 69.2976 58.4348 70 56.6667 70H23.3334C21.5652 70 19.8696 69.2976 18.6193 68.0474C17.3691 66.7971 16.6667 65.1014 16.6667 63.3333V40" stroke="#FDE047" stroke-width="6.66667" stroke-linecap="round" stroke-linejoin="round"/>
<path d="M25 26.6667C22.7899 26.6667 20.6703 25.7887 19.1075 24.2259C17.5447 22.6631 16.6667 20.5435 16.6667 18.3333C16.6667 16.1232 17.5447 14.0036 19.1075 12.4408C20.6703 10.878 22.7899 9.99999 25 9.99999C28.2156 9.94397 31.3668 11.5042 34.0425 14.4772C36.7182 17.4502 38.7943 21.698 40 26.6667C41.2058 21.698 43.2819 17.4502 45.9576 14.4772C48.6333 11.5042 51.7844 9.94397 55 9.99999C57.2102 9.99999 59.3298 10.878 60.8926 12.4408C62.4554 14.0036 63.3334 16.1232 63.3334 18.3333C63.3334 20.5435 62.4554 22.6631 60.8926 24.2259C59.3298 25.7887 57.2102 26.6667 55 26.6667" stroke="#FDE047" stroke-width="6.66667" stroke-linecap="round" stroke-linejoin="round"/>
</svg>
